<?xml version="1.0" encoding="utf-8"?>
<!-- Generator: Adobe Illustrator 16.0.3, SVG Export Plug-In . SVG Version: 6.00 Build 0)  -->
<!DOCTYPE svg PUBLIC "-//W3C//DTD SVG 1.1//EN" "http://www.w3.org/Graphics/SVG/1.1/DTD/svg11.dtd">
<svg version="1.1" id="圖層_1" xmlns="http://www.w3.org/2000/svg" xmlns:xlink="http://www.w3.org/1999/xlink" x="0px" y="0px"
	 width="400px" height="135px" viewBox="0 0 400 135" enable-background="new 0 0 400 135" xml:space="preserve">
<g>
	<g>
		<g>
			<g>
				<path fill="#626365" d="M177.203,21.553c-1.952,0-3.529,1.586-3.529,3.533v21.432c-0.104,7.141-2.594,9.826-5.295,11.583
					c-2.743,1.711-6.176,1.947-7.196,1.929c-0.262,0-0.318-0.004-0.318-0.004h-0.181c-6.675-0.116-9.051-2.592-10.718-5.342
					c-1.593-2.792-1.75-6.176-1.728-6.705l0,0v-0.167V25.086c0-1.947-1.579-3.533-3.533-3.533c-1.95,0-3.531,1.586-3.531,3.533
					v22.605c-0.004,0.075-0.004,0.171-0.004,0.288c0.021,1.183,0.102,5.579,2.625,10.15c2.444,4.604,8.026,9.042,16.809,8.958
					c0.114,0.01,0.308,0.01,0.58,0.01c1.713-0.02,6.296-0.195,10.875-2.958c4.635-2.713,8.783-8.564,8.685-17.621V25.086
					C180.743,23.139,179.157,21.553,177.203,21.553z"/>
				<path fill="#626365" d="M344.164,21.553c-1.951,0-3.533,1.586-3.533,3.533l-0.004,21.432c-0.098,7.141-2.592,9.826-5.291,11.583
					c-2.75,1.711-6.188,1.947-7.217,1.929c-0.246,0-0.307-0.004-0.307-0.004h-0.184c-6.672-0.116-9.049-2.592-10.709-5.342
					c-1.57-2.736-1.752-6.056-1.738-6.668l0.006-0.204V25.086c0-1.947-1.58-3.533-3.527-3.533c-1.955,0-3.537,1.586-3.537,3.533
					v22.605c-0.008,0.075-0.008,0.171-0.008,0.292c0.021,1.182,0.105,5.574,2.627,10.146c2.445,4.604,8.029,9.047,16.809,8.958
					c0.113,0.01,0.309,0.01,0.568,0.01c1.729-0.02,6.313-0.195,10.898-2.958c4.633-2.713,8.781-8.564,8.684-17.621V25.086
					C347.701,23.139,346.113,21.553,344.164,21.553z"/>
				<path fill="#626365" d="M206.547,21.39h-7.532c-1.952,0-3.536,1.577-3.536,3.529c0,1.957,1.583,3.538,3.536,3.538l7.532-0.005
					c8.186,0.098,11.539,3.139,13.689,6.409c2.098,3.329,2.494,7.572,2.473,9.58c0,0.756-0.043,1.09-0.035,1.09
					c-0.699,7.558-3.588,10.623-6.52,12.478c-2.963,1.817-6.361,2.035-7.318,2.021c-0.244,0-0.314-0.004-0.314,0l-0.143-0.004
					c-7.407-0.111-10.129-2.801-11.908-5.615c-1.716-2.866-1.859-6.292-1.838-6.724h-0.005l0.005-0.135V4.809
					c0-1.953-1.581-3.529-3.536-3.529c-1.947,0-3.534,1.576-3.534,3.529v42.743l0,0c0,0.042,0,0.088,0,0.135
					c0.019,1.108,0.091,5.62,2.813,10.298c2.652,4.725,8.558,9.204,17.968,9.107c0.105,0.005,0.27,0.005,0.492,0.005
					c1.691-0.01,6.273-0.223,10.971-3.042c4.732-2.769,9.197-8.546,9.904-17.885c0.004-0.042,0.063-0.691,0.063-1.73
					c-0.014-2.712-0.354-8.142-3.541-13.313C223.09,25.907,216.6,21.289,206.547,21.39z"/>
				<path fill="#626365" d="M244.135,21.372c-1.953,0-3.533,1.585-3.533,3.538v38.649c0,1.952,1.58,3.538,3.533,3.538
					c1.949,0,3.525-1.586,3.525-3.538V24.91C247.66,22.958,246.084,21.372,244.135,21.372z"/>
				<path fill="#626365" d="M298.063,42.989c-1.953,0-3.533,1.577-3.533,3.529c-0.094,6.964-2.484,9.682-5.088,11.462
					c-2.766,1.809-6.33,2.077-7.391,2.054c-0.262,0-0.342-0.009-0.342-0.009h-0.172c-6.668-0.116-9.043-2.592-10.713-5.323
					c-1.586-2.782-1.746-6.163-1.725-6.714l0,0v-0.176V28.457h27.697c1.951,0,3.533-1.586,3.533-3.533
					c0-1.952-1.582-3.534-3.533-3.534H269.1V4.883c0-1.952-1.576-3.528-3.531-3.528c-1.953,0-3.533,1.577-3.533,3.528l0,0v42.929
					c0,0.056,0,0.111,0,0.176c0.016,1.196,0.1,5.592,2.625,10.169c2.447,4.6,8.045,9.032,16.834,8.936
					c0.117,0,0.307,0.005,0.557,0.005c1.785-0.02,6.535-0.209,11.205-3.168c4.51-2.791,8.438-8.583,8.338-17.411
					C301.594,44.566,300.012,42.989,298.063,42.989z"/>
				<path fill="#626365" d="M392.93,53.557c0.023-5.342-2.994-9.122-6-10.61c-3.01-1.59-5.746-1.613-6.541-1.637
					c-0.082,0-0.156,0-0.229,0.009h-11.83c-0.193-0.009-0.385,0-0.52,0c-4.564-0.032-6.254-1.206-7.021-2.044
					c-0.787-0.858-0.992-2.017-0.992-2.857c0-0.25,0.018-0.445,0.035-0.561c0-0.023,0-0.047,0.006-0.065
					c0.008-0.033,0.008-0.038,0.008-0.038h-0.008l0.064-0.672c0.123-3.612,1.467-4.707,3.344-5.741
					c0.938-0.44,1.977-0.686,2.756-0.807c0.391-0.06,0.707-0.093,0.908-0.106c0.209-0.004,0.236-0.004,0.236-0.004h22.252
					c1.949,0,3.531-1.582,3.531-3.539c0-1.952-1.582-3.533-3.531-3.533h-22.252c-0.279,0.019-3.363-0.028-6.879,1.572
					c-3.455,1.451-7.434,5.662-7.426,11.889c-0.057,0.353-0.113,0.909-0.113,1.604c0,1.813,0.406,4.874,2.797,7.568
					c2.406,2.712,6.496,4.423,12.285,4.396c0.197,0,0.359,0,0.479,0h12.01l0.09-0.005l0,0c0.023,0,0.057,0,0.092,0
					c0.416,0.005,1.967,0.153,3.094,0.784c1.215,0.807,2.172,1.41,2.291,4.637l0.055,0.645c0,0,0.014,0.046,0.039,0.287
					c0.023,0.246,0.053,0.617,0.053,1.048c0.018,1.057-0.236,2.379-0.699,3.037c-0.484,0.607-0.781,1.122-3.084,1.21h-25.854
					c-1.951,0-3.533,1.586-3.533,3.534c0,1.952,1.582,3.538,3.533,3.538l25.854-0.005c4.09,0.092,7.459-1.865,9.025-4.433
					c1.596-2.527,1.805-5.092,1.822-6.881C393.076,54.786,392.99,54.006,392.93,53.557z"/>
				<path fill="#626365" d="M244.117,4.155c-1.994,0.047-3.57,1.693-3.525,3.687c0.043,1.985,1.686,3.57,3.68,3.529
					c1.996-0.051,3.576-1.688,3.533-3.672C247.76,5.69,246.115,4.118,244.117,4.155z"/>
				<path fill="#626365" d="M344.242,11.37c1.996-0.051,3.576-1.688,3.537-3.672c-0.039-2.008-1.693-3.58-3.68-3.543
					c-1.996,0.047-3.578,1.693-3.535,3.687C340.607,9.826,342.256,11.412,344.242,11.37z"/>
				<path fill="#626365" d="M144.772,11.37c1.994-0.051,3.568-1.688,3.531-3.672c-0.051-2.008-1.69-3.58-3.679-3.543
					c-1.999,0.047-3.58,1.693-3.538,3.687C141.129,9.826,142.783,11.412,144.772,11.37z"/>
			</g>
			<g>
				<path fill="#F57D1E" d="M162.402,82.084c-0.559,0.198-1.259,0.458-2.101,0.777c-0.16-0.119-0.441-0.18-0.83-0.18
					c-0.128,0-0.255,0.027-0.399,0.088c-0.134,0.061-0.271,0.092-0.392,0.092c-0.037,0-0.109,0-0.211,0c-0.09,0-0.167,0-0.204,0
					c-0.163,0-0.42,0.048-0.779,0.149c-0.357,0.097-0.652,0.152-0.874,0.152c-0.22,0-0.246,0.061-0.085,0.182l-0.302-0.182
					c-0.399,0.075-0.818,0.107-1.254,0.107l-0.424,0.375h-0.178c-0.207,0-0.262,0-0.179,0c-0.083,0-0.186,0-0.306,0
					c-0.192,0-0.507,0.065-0.925,0.218c-0.422,0.153-0.668,0.246-0.756,0.297l-0.357,0.315c-0.079-0.116-0.257-0.177-0.535-0.177
					c-0.125,0-0.271,0.075-0.452,0.214c-0.178,0.14-0.332,0.204-0.45,0.204c-0.682,0-1.477,0.84-2.402,2.522
					c-0.756,1.358-1.24,2.541-1.433,3.538c-0.524,0.673-0.983,1.781-1.387,3.302l-0.237-0.061v0.236
					c0.396,0.078,1.201,0.121,2.399,0.121c0.035,0,0.058-0.074,0.058-0.236c0-0.042,0.176-0.061,0.536-0.061
					c0.246,0,0.603-0.079,1.085-0.246c0.479-0.158,0.839-0.236,1.078-0.236c0.079,0,0.202,0.027,0.364,0.093
					c0.158,0.056,0.273,0.084,0.354,0.084c0.16,0,0.401-0.048,0.724-0.149c0.32-0.097,0.563-0.144,0.719-0.144l0.299-0.302
					c0.121,0.038,0.276,0.099,0.478,0.182c0.082,0,0.13-0.032,0.153-0.093c0.026-0.061,0.07-0.089,0.153-0.089
					c0.239,0,0.593-0.073,1.076-0.213c0.475-0.139,0.841-0.208,1.08-0.208c0.719,0,1.243,0.162,1.56,0.481l-1.502,0.357
					c-0.121,0-0.209,0.046-0.267,0.148c-0.064,0.102-0.129,0.152-0.213,0.152l-0.42,0.479c-0.153-0.121-0.519-0.181-1.076-0.181
					c-0.081,0-0.123,0.041-0.123,0.12c0,0.204-0.599,0.301-1.804,0.301c-0.152,0-0.232,0.02-0.232,0.061l0.176,0.177l-0.296-0.237
					l-0.125,0.302l-0.178-0.302c-0.158,0.116-0.301,0.325-0.417,0.595l-0.181-0.293c-0.158,0.078-0.179,0.182-0.058,0.293
					c0-0.075-0.121-0.111-0.361-0.111c-0.283,0-0.341,0.056-0.174,0.175l-0.248-0.175c-0.076,0.036-0.118,0.073-0.118,0.111
					c0,0.088,0.06,0.162,0.174,0.245c-0.114,0-0.292-0.023-0.536-0.061c-0.202,0-0.364-0.01-0.508-0.027
					c-0.141-0.023-0.211-0.014-0.211,0.027l0.179,0.182l-0.299-0.182c-0.035,0.037-0.118,0.089-0.241,0.148
					c-0.119,0.061-0.188,0.12-0.209,0.186c-0.014,0.056-0.633,0.089-1.827,0.089c-1.198,0-2,0.718-2.399,2.155
					c-0.322,1.243-0.642,2.48-0.96,3.724l0.239,0.116c0,0.402,0,0.779,0,1.136c0,1.726,0.382,2.582,1.143,2.582
					c0.079,0,0.116,0.02,0.116,0.061c0,0.038-0.019,0.079-0.065,0.121c-0.033,0.037-0.051,0.084-0.051,0.116h0.116
					c0.157,0,0.41,0.088,0.747,0.246c0.341,0.157,0.591,0.235,0.755,0.235c0.119,0,0.3-0.046,0.541-0.152
					c0.241-0.098,0.436-0.144,0.598-0.144c0.438,0,1.558-0.399,3.357-1.202l0.302-0.301c0.718-0.394,1.54-0.815,2.459-1.261
					c0.242-0.273,1.12-0.84,2.639-1.674c1.519-0.845,2.578-1.601,3.174-2.282l0.366,0.362c0,0.194,0.056,0.334,0.179,0.417
					c-1.235,1.081-2.46,2.18-3.661,3.301c-0.121,0.116-0.747,0.465-1.887,1.045c-1.141,0.584-1.762,0.871-1.86,0.871
					c-0.1,0-0.517,0.24-1.263,0.724c-0.732,0.478-1.164,0.714-1.289,0.714c-0.119,0-0.197,0.051-0.236,0.148
					c-0.04,0.106-0.098,0.152-0.179,0.152c-0.083,0-0.176,0.023-0.304,0.065c-0.116,0.032-0.22,0.056-0.299,0.056l-0.482,0.422
					c-0.079-0.078-0.196-0.12-0.357-0.12c-0.364,0-0.6,0.181-0.721,0.538c0.044,0.046-0.855,0.064-2.694,0.064
					c-0.125,0-0.206-0.051-0.243-0.158c-0.035-0.098-0.097-0.148-0.179-0.148l-0.357-0.296l0.056-0.056
					c-0.037-0.047-0.139-0.065-0.302-0.065l-0.477,0.121c-0.042-0.357-0.341-0.816-0.9-1.377c0-0.562-0.183-1.048-0.535-1.442
					l0.229-0.297c-0.037-0.32-0.213-0.705-0.535-1.141c0.44-1.957,0.658-2.977,0.658-3.061c0.281-1.159,0.643-2.143,1.083-2.939
					l-0.478-0.362h-0.478c-0.044,0-0.507,0.172-1.384,0.515c-0.878,0.339-1.599,0.506-2.158,0.506
					c-0.684-0.357-1.018-0.756-1.018-1.201c0-0.557,0.254-0.834,0.772-0.834l0.246-0.302c0.598,0,1.468-0.172,2.61-0.516
					c1.136-0.334,1.855-0.505,2.159-0.505c0.294,0,0.547-0.301,0.747-0.899c0.123-0.398,0.241-0.825,0.359-1.261
					c0.802-1.396,1.201-2.318,1.201-2.759c0.158-0.121,0.438-0.617,0.842-1.498c0.398-1.039,0.663-1.637,0.776-1.8
					c-0.039-0.078-0.113-0.199-0.234-0.356c-0.088,0.036-0.204,0.167-0.364,0.385c-0.158,0.223-0.32,0.329-0.478,0.329
					c-0.083,0-0.201-0.046-0.361-0.144c-0.162-0.106-0.28-0.153-0.364-0.153c-0.278,0-0.476-0.163-0.598-0.487
					c-0.119-0.314-0.244-0.519-0.357-0.593c0.16-0.242,0.304-0.543,0.422-0.9c0.716-0.356,1.417-0.557,2.101-0.598l1.491-0.599
					l0.73,0.116l0.413-0.418h0.304c0.478,0,0.86,0.038,1.136,0.116l0.719-0.486c0.165,0,0.374-0.056,0.63-0.172
					c0.262-0.121,0.45-0.177,0.568-0.177c0.042,0,0.111,0.048,0.213,0.145c0.1,0.102,0.167,0.153,0.211,0.153
					c0.162,0,0.376-0.103,0.661-0.298c0.278-0.203,0.499-0.301,0.661-0.301c0.155,0,0.378,0.047,0.656,0.148
					c0.278,0.102,0.5,0.152,0.661,0.152c0.074,0,0.197-0.051,0.357-0.152c0.16-0.102,0.28-0.148,0.361-0.148
					c0.315,0,0.809-0.056,1.472-0.152c0.658-0.102,1.152-0.149,1.468-0.149c0.118,0,0.329,0.048,0.625,0.149
					c0.309,0.097,0.531,0.152,0.698,0.152c0.116,0,0.311-0.056,0.563-0.152c0.264-0.102,0.45-0.149,0.577-0.149
					C162.065,81.54,162.327,81.726,162.402,82.084z"/>
				<path fill="#F57D1E" d="M174.334,96.477c0-0.121-0.192,0.278-0.596,1.201c-0.079,0.839-0.899,3.018-2.462,6.537
					c-1.436,3.279-2.059,5.217-1.853,5.815c-0.32,0.319-0.645,0.481-0.967,0.481c-0.119,0-0.292-0.051-0.539-0.147
					c-0.241-0.106-0.417-0.153-0.54-0.153c0.043-0.158,0.181-0.381,0.422-0.663c-0.042-0.116-0.123-0.135-0.241-0.056
					c0.883-2.161,2.08-5.439,3.601-9.835h0.056c0.042,0,0.061-0.084,0.061-0.241c0.042-0.162,0.042-0.236,0-0.236l-0.177,0.176
					h-0.183c-0.079,0.042-0.16,0.098-0.237,0.181c-0.199,0.278-0.533,0.607-0.99,0.988c-0.457,0.385-0.674,0.57-0.628,0.57
					c0,0.041,0.021,0.121,0.058,0.236c-0.643,0.12-1.236,0.728-1.799,1.799c-0.317,0-0.682,0.27-1.081,0.779
					c-0.398,0.523-0.672,0.779-0.807,0.779c-0.142,0-0.614,0.579-1.417,1.748c-0.795,1.159-1.252,1.799-1.37,1.915h-0.603
					c-0.241,0-0.455-0.25-0.631-0.746c-0.183-0.501-0.426-0.789-0.747-0.877c0.357-0.315,0.816-0.835,1.377-1.554
					c-0.04-0.445,0.158-0.96,0.603-1.563l-0.063-0.237c0-0.36,0.167-0.917,0.512-1.655c0.336-0.736,0.506-1.325,0.506-1.766
					c0-0.195-0.021-0.418-0.063-0.659c-0.042-0.199-0.018-0.5,0.063-0.898c0.438-0.766,0.997-1.184,1.678-1.262
					c0.724,0.436,1.083,0.899,1.083,1.382c0-0.084-0.587,1.317-1.741,4.2l0.179,0.232c1.563-1.479,3.858-3.732,6.897-6.774v-0.116
					c0-0.204-0.039-0.204-0.118,0c0.118-0.041,0.248-0.189,0.389-0.422c0.141-0.241,0.292-0.362,0.447-0.362
					c0.121,0,0.292,0.024,0.51,0.061c0.223,0.038,0.392,0.061,0.515,0.061C174.038,96.036,174.334,96.397,174.334,96.477z"/>
				<path fill="#F57D1E" d="M188.737,94.556c0,0.719-0.985,3.279-2.942,7.68c-0.28-0.083-0.698-0.139-1.263-0.177
					c0-0.083-0.016-0.185-0.056-0.301c0-0.13,0-0.205,0-0.241c0-0.121,0.016-0.199,0.056-0.241c0.167-0.278,0.246-0.64,0.246-1.08
					c0-0.204,0.061-0.302,0.179-0.302l0.176,0.115c0.042-0.032,0.103-0.514,0.181-1.433c0.083-0.603,0.302-0.982,0.661-1.141
					l-0.119-0.603c-0.438,0.278-0.899,0.58-1.379,0.896c-0.841,0.603-1.259,1.028-1.259,1.316c0,0.079,0,0.139,0,0.177
					c-0.276,0.12-0.612,0.481-1.006,1.075c-0.672,0.52-1.435,1.534-2.302,3.037c-0.983,1.642-1.354,2.792-1.118,3.464
					c-0.158,0.125-0.449,0.459-0.895,1.016c-0.232,0.324-0.744,0.617-1.528,0.899c0-0.199-0.137-0.38-0.417-0.538
					c-0.271-0.162-0.411-0.32-0.411-0.478c0,0.116,0.139-0.199,0.42-0.955c-0.042-0.398,0.401-1.604,1.319-3.612
					c0.918-2.013,1.375-3.412,1.375-4.206c0-0.167-0.037-0.365-0.116-0.63c-0.079-0.26-0.118-0.445-0.118-0.565
					c0.396-0.789,0.797-1.192,1.194-1.192c0.969,0,1.5,0.236,1.623,0.719c0.197,0.719,0.336,1.117,0.424,1.197
					c0.434-0.599,1.368-1.521,2.785-2.788c1.423-1.256,2.349-1.891,2.787-1.891h0.842c0.079,0,0.118,0.073,0.118,0.213
					c0,0.139,0.093,0.228,0.273,0.269C188.646,94.302,188.737,94.394,188.737,94.556z"/>
				<path fill="#F57D1E" d="M197.853,95.335c-0.967,1.8-1.906,3.599-2.822,5.397c-1.438,2.681-2.16,4.442-2.16,5.282v1.618
					c-0.156,0.199-0.202,0.357-0.114,0.478c-0.286-0.042-0.584,0.125-0.9,0.482c-0.248-0.162-0.605-0.38-1.083-0.658
					c0.278-1.322,0.897-3.302,1.852-5.94c0.244-0.366,0.543-0.965,0.9-1.799v-0.061c0-0.158,0.216-0.668,0.633-1.535
					c0.42-0.853,0.591-1.404,0.508-1.641c0.403-0.158,0.605-0.344,0.605-0.543c0-0.44-0.202-0.82-0.605-1.142
					c0.445-0.314,1.043-0.838,1.804-1.557c0.16,0,0.359,0.056,0.601,0.18c0.239,0.121,0.387,0.404,0.452,0.835
					C197.58,95.173,197.691,95.373,197.853,95.335z M201.213,87.425c-0.168,0.236-0.362,0.594-0.603,1.071c0.202,0-0.299,0-1.498,0
					c-0.12,0-0.271-0.218-0.454-0.654c-0.176-0.445-0.29-0.682-0.329-0.724c0.201-0.278,0.419-0.556,0.663-0.839
					c0.236-0.277,0.517-0.427,0.839-0.427C200.151,85.853,200.61,86.382,201.213,87.425z"/>
				<path fill="#F57D1E" d="M213.088,94.798c0,0.162-0.113,0.338-0.332,0.537c-0.223,0.2-0.35,0.362-0.395,0.483
					c-0.281,0.119-0.859,0.954-1.744,2.513c-0.156,0-0.375,0.324-0.652,0.964c-0.359,0.762-0.563,1.159-0.596,1.197
					c-0.125,0.036-0.283,0.036-0.484,0c-0.119-0.079-0.279-0.121-0.475-0.121v-0.116c0.039-0.319-0.063-0.598-0.303-0.839
					c0.24-0.162,0.467-0.329,0.688-0.51c0.223-0.186,0.33-0.454,0.33-0.813c0-0.598-0.117-0.898-0.359-0.898
					c-0.082,0-0.348,0.208-0.811,0.63c-0.455,0.418-0.748,0.673-0.865,0.751l0.297,0.116c-0.363,0.646-0.652,0.965-0.871,0.965
					c-0.221,0-0.33,0.019-0.33,0.061l0.184,0.176c-0.473,0.163-1.045,0.886-1.705,2.165c-0.666,1.275-0.998,2.194-0.998,2.754
					c0,0.08,0.111,0.298,0.326,0.659c0.223,0.357,0.293,0.696,0.207,1.021c0.164,0,0.422,0.019,0.779,0.061
					c0.346,0.036,0.611,0.06,0.77,0.06c0.236,0,0.891-0.329,1.961-0.987c1.066-0.663,1.643-1.09,1.723-1.289
					c0.277-0.121,0.555-0.283,0.83-0.487l-0.119-0.357l0.363,0.061c0.676-1.085,1.197-1.701,1.559-1.854
					c0.035-0.046,0.1-0.069,0.184-0.069c0.035,0,0.137,0.023,0.293,0.069c0.162,0,0.285,0,0.369,0v0.538
					c-0.525,0.557-0.662,0.937-0.426,1.14c-0.078,0.038-0.213,0.205-0.42,0.511c-0.205,0.302-0.385,0.45-0.541,0.45
					c-0.16-0.047-0.24-0.047-0.24,0l0.184,0.176c-0.201,0.121-1.258,0.862-3.18,2.217c-1.641,1.206-2.635,1.804-2.998,1.804
					c-0.961,0-2.102-0.598-3.426-1.804c0-0.195-0.021-0.515-0.057-0.955c0-0.399,0-0.705,0-0.905c0-0.477,0.113-0.959,0.334-1.438
					c0.217-0.481,0.328-0.755,0.328-0.838c0-0.162-0.059-0.302-0.18-0.418c0.193-0.078,0.41-0.361,0.633-0.844
					c0.211-0.478,0.385-0.756,0.51-0.839c0.121-0.079,0.313-0.121,0.598-0.121c-0.082,0-0.125-0.093-0.125-0.297
					c0-0.083,0.482-0.649,1.441-1.706c0.965-1.062,1.498-1.739,1.617-2.013c0.68-0.64,1.385-1.279,2.1-1.919
					c0.885-0.798,1.658-1.299,2.346-1.503l0.295,0.306c0.238,0.038,0.533,0.251,0.875,0.626
					C212.914,94.246,213.088,94.556,213.088,94.798z"/>
				<path fill="#F57D1E" d="M231.02,106.845c-0.682,0.686-1.383,1.391-2.102,2.104c-1.08,1.039-1.783,1.563-2.102,1.563
					c-0.561,0.357-0.92,0.659-1.076,0.9c-0.199,0-0.494,0.013-0.873,0.056c-0.377,0.041-0.664,0.061-0.873,0.061
					c-0.152,0-0.398-0.14-0.715-0.418c0-0.083-0.16-0.121-0.479-0.121c-0.08,0-0.273-0.068-0.574-0.213
					c-0.301-0.134-0.506-0.228-0.629-0.265c-0.598-2.443-0.893-3.616-0.893-3.538c0-0.324,0.078-0.774,0.238-1.349
					c0.152-0.59,0.24-1.03,0.24-1.354c0-0.315-0.07-0.64-0.184-0.954l0.184-0.367v-0.056c0-0.078,0.135-0.177,0.414-0.301v-2.161
					l-0.234-0.236c-1.324,1.479-3.029,4.237-5.104,8.276c-0.078-0.079-0.377-0.12-0.896-0.12c-0.117,0-0.291-0.116-0.516-0.361
					c-0.219-0.242-0.348-0.381-0.383-0.418c0.357-0.923,1.178-3.598,2.455-8.036c0.277-0.198,0.852-1.465,1.711-3.783
					c0.859-2.313,1.268-3.635,1.234-3.956c0.355-0.162,0.953-1.358,1.793-3.602c0-0.038,0.063-0.594,0.182-1.68
					c0.08-0.593,0.381-1.038,0.895-1.316c0.361,0.162,0.826,0.478,1.381,0.96v1.321c-0.918,1.317-1.559,2.801-1.914,4.438
					l-0.301-0.177c0,0.116-0.621,1.638-1.861,4.555c-0.881,2.156-1.34,3.64-1.375,4.437c0.117-0.116,0.213-0.157,0.301-0.116
					c-0.049,0-0.088-0.185-0.127-0.542l0.307,0.246c0.195-0.162,0.414-0.366,0.654-0.603c-0.039-0.079-0.102-0.145-0.18-0.182
					c0.643-0.724,1.621-1.762,2.938-3.12c0.4-0.12,0.982-0.32,1.742-0.598c0.041,0.119,0.154,0.24,0.328,0.356
					c0.184,0.121,0.271,0.324,0.271,0.598c0,0.325-0.064,0.798-0.217,1.442c-0.133,0.64-0.203,1.141-0.203,1.503l-0.42,0.417
					c0,0.357-0.213,1.029-0.629,2.013c-0.424,0.979-0.572,1.743-0.451,2.305c-0.244,0.561-0.357,1.079-0.357,1.563
					c0,0.153,0.078,0.496,0.236,1.015c0.121,0.367,0.121,0.683,0,0.961c0.086,0.245,0.277,0.532,0.6,0.871
					c0.32,0.344,0.559,0.511,0.721,0.511s0.238,0.041,0.238,0.12c0,0.042,0.039,0.042,0.123,0c0.123,0,0.271,0.032,0.449,0.093
					c0.182,0.061,0.307,0.093,0.391,0.093l0.301-0.306c0.158-0.043,0.4-0.08,0.715-0.121l0.6-0.598c0.207,0,0.441-0.14,0.725-0.418
					c-0.043-0.125,0.098-0.181,0.426-0.181c0.311,0,1.053-0.589,2.215-1.744C230.516,106.437,230.738,106.612,231.02,106.845z"/>
				<path fill="#F57D1E" d="M267.785,86.813c-0.883,0.922-2.041,2.489-3.482,4.683c-0.998,0.478-2.355,2.077-4.076,4.8
					c-0.518,0.76-1.141,2.499-1.861,5.221c-0.242,0.319-0.621,1.168-1.137,2.546c-0.52,1.377-0.781,2.271-0.781,2.666
					c0,0.167-0.023,0.245-0.059,0.245h-0.242v0.056c0.037,0.761-0.242,1.847-0.84,3.241c-0.76,1.841-1.193,2.94-1.318,3.303
					c-0.32,0.397-0.879,1.595-1.68,3.593c-0.279,0-0.52,0.557-0.721,1.684c-0.275,0.319-0.621,0.871-1.021,1.65
					c-0.398,0.774-0.822,1.345-1.254,1.702l0.291,0.241c-0.951,1.604-2.154,3.52-3.594,5.763c-0.6,0.919-1.697,2.041-3.295,3.357
					c-1.762,1.442-3.082,2.156-3.965,2.156c-0.998,0-1.457,0-1.379,0c0.088-0.037,0.123-0.097,0.123-0.181
					c0-0.153-0.102-0.236-0.297-0.236c-0.078,0-0.186,0.027-0.301,0.093c-0.113,0.056-0.221,0.084-0.305,0.084
					c-0.035,0-0.441-0.316-1.195-0.956c-1.123-0.876-1.861-1.799-2.219-2.764c-0.682-1.873-1.08-2.889-1.201-3.056
					c0.234-0.482,0.379-1.938,0.42-4.377c0-1.595,0.262-2.723,0.781-3.357l-0.184-0.302c0.203-0.12,0.826-0.778,1.859-1.984
					c0.883-1.033,1.496-1.558,1.857-1.558c0.486,0,0.943,0.12,1.381,0.366c-0.598,0.515-1.48,1.293-2.639,2.337
					c-0.279,0.241-0.541,0.682-0.783,1.321c-0.232,0.636-0.475,1.076-0.711,1.313c0,0.524-0.139,1.279-0.424,2.281l0.244,0.418
					l-0.127-0.056c-0.117,0-0.184,0.078-0.184,0.24c0,0.157,0.059,0.418,0.158,0.774c0.096,0.362,0.152,0.646,0.152,0.849
					c0,1.034,0.158,1.915,0.477,2.634c0.402,0.997,0.641,1.702,0.721,2.101c0.197,0.079,0.398,0.199,0.598,0.357l-0.244,0.12
					c1.166,1.321,2.283,1.979,3.365,1.979c0.117,0,0.379-0.097,0.805-0.301c0.422-0.199,0.723-0.297,0.904-0.297
					c0.184,0,0.926-0.569,2.248-1.706c1.318-1.141,1.986-1.794,1.986-1.952l-0.129-0.241l0.297,0.125
					c0.33-0.444,0.787-1.145,1.381-2.104c0.887-1.358,1.74-2.694,2.58-4.016c0.959-1.6,1.645-3.023,2.045-4.257l0.418-0.182
					c-0.078-0.162-0.18-0.185-0.301-0.064c1.52-2.438,2.441-4.739,2.764-6.896c0.479-0.556,0.717-1.303,0.717-2.216
					c0.555-1.762,1.477-4.321,2.754-7.684l-0.359-0.417c-0.119,0.204-0.197,0.5-0.236,0.899c-0.322-0.037-0.574,0.125-0.777,0.478
					c-0.205,0.366-0.385,0.543-0.547,0.543c-0.279,0.199-0.414,0.481-0.414,0.843c-0.283,0.038-0.629,0.288-1.053,0.747
					c-0.42,0.46-0.652,0.825-0.691,1.108l-0.357-0.061c-0.123,0-0.326,0.218-0.631,0.663c-0.303,0.44-0.451,0.742-0.451,0.9
					c-0.197,0-0.568,0.286-1.105,0.871c-0.543,0.575-1.012,0.867-1.412,0.867c-0.08,0-0.5-0.241-1.26-0.719l0.059-0.719
					c0.164-0.208,0.445-0.761,0.84-1.688c0-0.033,0-0.074,0-0.116c-0.115-0.236-0.178-0.38-0.178-0.418
					c0-0.116,0.109-0.365,0.324-0.724c0.223-0.36,0.338-0.714,0.338-1.075c0-0.157-0.023-0.324-0.066-0.481l0.307,0.185
					c0.598-1.688,0.871-3.083,0.836-4.205c0.158-0.079,0.412-0.398,0.75-0.955c0.342-0.562,0.609-0.84,0.811-0.84
					c0.119,0,0.316,0.033,0.6,0.089c0.275,0.064,0.477,0.093,0.598,0.093c-0.082,0.198-0.121,0.375-0.121,0.532
					c0,0.404,0.145,0.663,0.422,0.784v0.478c-0.717,0.719-1.379,1.911-1.977,3.571c-0.598,1.658-0.924,2.513-0.959,2.549
					c0,0.038,0.076,0.061,0.238,0.061c0.277,0,0.701-0.334,1.258-1.02c0.402-0.479,0.781-0.941,1.139-1.382
					c2.119-2.119,3.115-3.297,2.998-3.538c0.76-0.52,1.525-1.358,2.281-2.522c0.76-1.159,1.18-2.156,1.264-2.995
					c0.396-0.64,0.598-0.886,0.598-0.719c0-0.083-0.063-0.121-0.186-0.121c0.648-0.478,1.264-1.358,1.863-2.644
					c0.68-1.474,1.223-2.41,1.629-2.814c0.746-0.876,1.813-1.326,3.17-1.326c0.119,0,0.373,0.2,0.779,0.607
					C267.602,86.136,267.697,86.502,267.785,86.813z"/>
				<path fill="#F57D1E" d="M274.08,97.135c0,1.799-0.455,3.491-1.35,5.068c-0.896,1.586-1.809,3.11-2.73,4.59
					c-0.279,0.042-0.639,0.274-1.08,0.687c-0.438,0.417-0.689,0.631-0.746,0.631c-0.066,0-0.105,0.032-0.123,0.093
					c-0.023,0.061-0.068,0.088-0.152,0.088c-0.074,0-0.211,0.042-0.385,0.12c-0.184,0.079-0.332,0.121-0.455,0.121
					c-0.355,0-0.813,0.093-1.371,0.301c-0.045-0.041-0.135-0.102-0.271-0.18c-0.145-0.084-0.191-0.14-0.152-0.182
					c-0.359-0.162-0.678-0.562-0.961-1.196l-0.66-1.446l0.301-0.177c0-0.162,0.018-0.407,0.057-0.751
					c0.041-0.338,0.066-0.612,0.066-0.808c0-0.519,0.236-1.116,0.715-1.803c0.717-1.039,1.098-1.596,1.146-1.675
					c0.078-0.203,0.078-0.338,0-0.421c1.27-1.201,2.055-2.264,2.342-3.181c0.158-0.116,0.629-0.641,1.434-1.559
					c0.563-0.64,1.119-1.02,1.684-1.141l0.301-0.297h0.592c0.357,0,0.752,0.408,1.172,1.229
					C273.871,96.068,274.08,96.699,274.08,97.135z M272.518,97.436c-0.115-0.125-0.221-0.278-0.299-0.477v0.056
					c0-0.038-0.018-0.075-0.057-0.116l-0.178-0.126c-0.119,0.084-0.32,0.223-0.598,0.423l-0.307-0.121
					c-0.846,0.997-1.641,1.799-2.404,2.401l0.244,0.182c-0.598,0.319-1.283,1.169-2.063,2.546c-0.785,1.377-1.17,2.411-1.17,3.088
					c0,0.125,0.018,0.301,0.057,0.538c0.035,0.246,0.096,0.398,0.148,0.454c0.061,0.056,0.209,0.139,0.451,0.236
					c0.24,0.103,0.418,0.148,0.541,0.148c0.117,0,0.184-0.019,0.205-0.056c0.023-0.037,0.053-0.079,0.092-0.12l0.301-0.116
					c0.08,0,0.119-0.056,0.119-0.148c0-0.102,0.07-0.152,0.213-0.152c0.135,0,0.555-0.344,1.26-1.021
					c0.697-0.683,1.127-1.146,1.289-1.382c0.234-0.399,0.914-1.957,2.039-4.679c-0.078-0.199-0.201-0.436-0.363-0.719
					c0.123-0.079,0.258-0.162,0.424-0.241c-0.039-0.078-0.184-0.199-0.424-0.356C272.162,97.631,272.324,97.557,272.518,97.436z"/>
				<path fill="#F57D1E" d="M291.238,93.115l-0.43,0.421c0.045,0.121,0.15,0.278,0.303,0.482c-0.355,0.524-0.777,1.058-1.254,1.618
					c-0.244,0.761-0.682,1.818-1.328,3.176l0.127,0.307c-0.441,0.315-0.543,0.501-0.303,0.538c-0.039,0.037-0.24,0.334-0.602,0.896
					l0.42,0.477l-0.178-0.051c-0.154,0.032-0.301,0.157-0.418,0.353l0.117,0.064l-0.184,0.362l-0.117-0.241
					c-0.082,0.682-0.121,1.238-0.121,1.679l-0.295-0.125c-0.568,1.957-0.881,3.598-0.955,4.92c-0.043,0.046-0.072,0.078-0.072,0.12
					c0,0.078,0.072,0.162,0.186,0.241c-0.113,0.079-0.379,0.38-0.783,0.899c-0.313,0.353-0.676,0.562-1.072,0.603l0.301-0.12
					c-0.246-0.283-0.682-0.422-1.32-0.422l0.293-0.362c-0.197-0.073-0.359-0.157-0.477-0.236c0.922-1.684,1.336-3.042,1.258-4.08
					c0.445-0.562,0.66-1.142,0.66-1.739c0.123-0.356,0.357-0.862,0.717-1.498v-0.417l-0.24-0.246
					c-0.197,0.121-0.619,0.59-1.254,1.415c-0.648,0.815-1.029,1.228-1.172,1.228c-0.139,0-0.463,0.334-0.955,1.017
					c-0.498,0.677-0.793,1.024-0.869,1.024c-0.084,0-0.463,0.357-1.146,1.076c-0.682,0.724-1.5,1.08-2.453,1.08v-0.241h-0.119
					c-0.084,0-0.127-0.079-0.127-0.236c0-0.042-0.061-0.065-0.18-0.065c-0.123,0-0.281-0.213-0.475-0.653
					c0.193-0.208,0.273-0.547,0.234-1.02c-0.041-0.488,0.066-0.784,0.295-0.904c-0.113-0.116-0.295-0.199-0.529-0.237
					c0.16-0.121,0.574-0.857,1.262-2.221c0.676-1.358,1.012-2.143,1.012-2.337l-0.178-0.302c0.643-0.677,0.957-1.441,0.957-2.281
					c0.078-0.115,0.223-0.273,0.424-0.478c-0.123-0.078-0.279-0.199-0.48-0.356l0.057-0.182l-0.117-0.189
					c0.676-0.515,0.996-0.77,0.959-0.77c0.123,0,0.264,0.018,0.42,0.056c0.162,0.036,0.307,0.056,0.42,0.056
					c0.637,0.407,1.18,0.709,1.621,0.903v0.658c0,0.126-0.057,0.187-0.184,0.187l-0.174-0.061c-0.129,0.398-0.639,1.159-1.566,2.281
					c-0.16,0-0.295,0.356-0.414,1.075c-0.48,0.44-0.887,1.363-1.205,2.76c-0.074,0.319-0.174,0.639-0.297,0.96
					c-0.119,0-0.18,0.018-0.18,0.063c0,0.154,0.258,0.232,0.777,0.232c0.398,0,1.201-0.857,2.4-2.573
					c0.283-0.203,0.424-0.445,0.424-0.719c0.998-0.807,1.66-1.382,1.977-1.743c0.678-0.719,1.164-1.461,1.443-2.221
					c0.318-0.242,0.809-0.956,1.467-2.161c0.662-1.196,0.984-1.994,0.984-2.398c0.201,0,0.52-0.051,0.965-0.147
					c0.436-0.098,0.762-0.148,0.961-0.148C290.688,92.159,290.959,92.475,291.238,93.115z M286.135,100.432
					c-0.078-0.079-0.156-0.111-0.24-0.111c-0.162,0-0.32,0.074-0.48,0.232l0.42,0.361l-0.123-0.361
					C285.799,100.432,285.934,100.395,286.135,100.432z"/>
				<path fill="#F57D1E" d="M305.148,94.556c0,0.719-0.982,3.279-2.943,7.68c-0.275-0.083-0.701-0.139-1.256-0.177
					c0-0.083-0.021-0.185-0.063-0.301c0-0.13,0-0.205,0-0.241c0-0.121,0.023-0.199,0.063-0.241c0.16-0.278,0.238-0.64,0.238-1.08
					c0-0.204,0.064-0.302,0.178-0.302l0.18,0.115c0.043-0.032,0.104-0.514,0.182-1.433c0.084-0.603,0.303-0.982,0.66-1.141
					l-0.117-0.603c-0.436,0.278-0.904,0.58-1.383,0.896c-0.84,0.603-1.256,1.028-1.256,1.316c0,0.079,0,0.139,0,0.177
					c-0.281,0.12-0.611,0.481-1.006,1.075c-0.668,0.52-1.438,1.534-2.307,3.037c-0.984,1.642-1.354,2.792-1.123,3.464
					c-0.156,0.125-0.449,0.459-0.887,1.016c-0.23,0.324-0.748,0.617-1.527,0.899c0-0.199-0.141-0.38-0.416-0.538
					c-0.281-0.162-0.414-0.32-0.414-0.478c0,0.116,0.143-0.199,0.424-0.955c-0.039-0.398,0.396-1.604,1.314-3.612
					c0.92-2.013,1.383-3.412,1.383-4.206c0-0.167-0.045-0.365-0.125-0.63c-0.072-0.26-0.113-0.445-0.113-0.565
					c0.396-0.789,0.795-1.192,1.191-1.192c0.963,0,1.504,0.236,1.621,0.719c0.203,0.719,0.34,1.117,0.42,1.197
					c0.445-0.599,1.373-1.521,2.791-2.788c1.422-1.256,2.348-1.891,2.789-1.891h0.834c0.092,0,0.127,0.073,0.127,0.213
					c0,0.139,0.092,0.228,0.27,0.269C305.061,94.302,305.148,94.394,305.148,94.556z"/>
				<path fill="#F57D1E" d="M336.156,94.798c0,0.162-0.109,0.338-0.336,0.537c-0.213,0.2-0.346,0.362-0.381,0.483
					c-0.285,0.119-0.859,0.954-1.738,2.513c-0.166,0-0.385,0.324-0.66,0.964c-0.357,0.762-0.564,1.159-0.607,1.197
					c-0.117,0.036-0.279,0.036-0.48,0c-0.119-0.079-0.275-0.121-0.48-0.121v-0.116c0.039-0.319-0.057-0.598-0.293-0.839
					c0.236-0.162,0.467-0.329,0.689-0.51c0.217-0.186,0.33-0.454,0.33-0.813c0-0.598-0.123-0.898-0.365-0.898
					c-0.078,0-0.348,0.208-0.801,0.63c-0.461,0.418-0.756,0.673-0.875,0.751l0.297,0.116c-0.359,0.646-0.646,0.965-0.865,0.965
					c-0.223,0-0.334,0.019-0.334,0.061l0.186,0.176c-0.473,0.163-1.039,0.886-1.703,2.165c-0.67,1.275-1.002,2.194-1.002,2.754
					c0,0.08,0.109,0.298,0.332,0.659c0.215,0.357,0.281,0.696,0.201,1.021c0.166,0,0.426,0.019,0.781,0.061
					c0.352,0.036,0.604,0.06,0.77,0.06c0.236,0,0.887-0.329,1.963-0.987c1.064-0.663,1.643-1.09,1.721-1.289
					c0.279-0.121,0.555-0.283,0.83-0.487l-0.113-0.357l0.348,0.061c0.682-1.085,1.207-1.701,1.566-1.854
					c0.049-0.046,0.1-0.069,0.182-0.069c0.035,0,0.137,0.023,0.297,0.069c0.162,0,0.285,0,0.359,0v0.538
					c-0.52,0.557-0.656,0.937-0.42,1.14c-0.078,0.038-0.217,0.205-0.418,0.511c-0.203,0.302-0.377,0.45-0.535,0.45
					c-0.164-0.047-0.242-0.047-0.242,0l0.174,0.176c-0.197,0.121-1.26,0.862-3.172,2.217c-1.643,1.206-2.639,1.804-3.002,1.804
					c-0.965,0-2.096-0.598-3.42-1.804c0-0.195-0.014-0.515-0.059-0.955c0-0.399,0-0.705,0-0.905c0-0.477,0.109-0.959,0.326-1.438
					c0.227-0.481,0.33-0.755,0.33-0.838c0-0.162-0.057-0.302-0.178-0.418c0.209-0.078,0.41-0.361,0.627-0.844
					c0.223-0.478,0.393-0.756,0.51-0.839c0.125-0.079,0.32-0.121,0.602-0.121c-0.078,0-0.113-0.093-0.113-0.297
					c0-0.083,0.48-0.649,1.439-1.706c0.953-1.062,1.496-1.739,1.613-2.013c0.682-0.64,1.381-1.279,2.096-1.919
					c0.885-0.798,1.666-1.299,2.342-1.503l0.303,0.306c0.24,0.038,0.531,0.251,0.871,0.626
					C335.984,94.246,336.156,94.556,336.156,94.798z"/>
				<path fill="#F57D1E" d="M348.512,83.646c0,0.232-0.191,0.653-0.568,1.257c-0.387,0.589-0.676,0.979-0.869,1.137l0.295,0.12
					c-1.4,2.875-2.658,6.204-3.777,9.955c-0.283,0.362-0.607,1.081-0.959,2.161c0,0.083,0,0.157,0,0.241
					c0,0.236-0.084,0.556-0.242,0.959c-0.158,0.399-0.238,0.637-0.238,0.72c-0.398,1.2-1.047,3-1.916,5.396l0.416,0.362v0.658
					l-0.904,1.498c-0.236,0.482-0.771,0.723-1.617,0.723c-0.117,0-0.217-0.06-0.295-0.18c-0.08-0.121-0.146-0.163-0.182-0.121
					c0-0.52,0.137-1.159,0.42-1.92c0.359-0.96,0.557-1.585,0.596-1.863l0.307,0.185c0-0.562,0.15-1.252,0.479-2.067
					c0.318-0.82,0.48-1.313,0.48-1.471c0.197-0.681,0.553-1.544,1.076-2.583c0-0.36,0.143-0.825,0.418-1.409
					c0.279-0.58,0.424-1.132,0.424-1.65c0.24-0.116,0.438-0.236,0.596-0.357c-0.08-0.041-0.113-0.121-0.113-0.24
					c0-0.316,0.113-0.747,0.32-1.29c0.223-0.537,0.328-0.945,0.328-1.233c0.643-1.275,1.145-2.457,1.504-3.533
					c0.199-0.918,0.559-2.285,1.084-4.081c0.197-0.194,0.311-0.421,0.359-0.658l-0.119-0.296v-0.543
					c0.24-0.037,0.414-0.12,0.535-0.241l-0.295-0.116c0.438-0.444,0.896-0.663,1.377-0.663h0.117c0,0.042-0.023,0.08-0.057,0.116
					c-0.041,0.047-0.061,0.088-0.061,0.126c0,0.041,0.02,0.061,0.061,0.061C348.166,82.803,348.512,83.08,348.512,83.646z"/>
				<path fill="#F57D1E" d="M357.387,97.135c0,1.799-0.451,3.491-1.355,5.068c-0.896,1.586-1.805,3.11-2.725,4.59
					c-0.281,0.042-0.641,0.274-1.076,0.687c-0.445,0.417-0.691,0.631-0.746,0.631c-0.07,0-0.105,0.032-0.129,0.093
					c-0.014,0.061-0.064,0.088-0.148,0.088c-0.078,0-0.213,0.042-0.395,0.12c-0.174,0.079-0.326,0.121-0.443,0.121
					c-0.361,0-0.816,0.093-1.381,0.301c-0.039-0.041-0.131-0.102-0.271-0.18c-0.135-0.084-0.186-0.14-0.146-0.182
					c-0.365-0.162-0.684-0.562-0.963-1.196l-0.658-1.446l0.301-0.177c0-0.162,0.018-0.407,0.057-0.751
					c0.039-0.338,0.063-0.612,0.063-0.808c0-0.519,0.238-1.116,0.719-1.803c0.721-1.039,1.105-1.596,1.141-1.675
					c0.084-0.203,0.084-0.338,0-0.421c1.277-1.201,2.063-2.264,2.334-3.181c0.16-0.116,0.646-0.641,1.443-1.559
					c0.563-0.64,1.115-1.02,1.684-1.141l0.299-0.297h0.598c0.363,0,0.75,0.408,1.166,1.229
					C357.172,96.068,357.387,96.699,357.387,97.135z M355.826,97.436c-0.117-0.125-0.223-0.278-0.297-0.477v0.056
					c0-0.038-0.023-0.075-0.063-0.116l-0.184-0.126c-0.117,0.084-0.316,0.223-0.594,0.423l-0.305-0.121
					c-0.84,0.997-1.641,1.799-2.4,2.401l0.246,0.182c-0.607,0.319-1.295,1.169-2.07,2.546c-0.785,1.377-1.172,2.411-1.172,3.088
					c0,0.125,0.018,0.301,0.061,0.538c0.045,0.246,0.084,0.398,0.154,0.454c0.057,0.056,0.205,0.139,0.439,0.236
					c0.246,0.103,0.424,0.148,0.547,0.148s0.188-0.019,0.207-0.056s0.051-0.079,0.09-0.12l0.307-0.116
					c0.074,0,0.113-0.056,0.113-0.148c0-0.102,0.07-0.152,0.213-0.152c0.137,0,0.557-0.344,1.26-1.021
					c0.699-0.683,1.127-1.146,1.289-1.382c0.242-0.399,0.918-1.957,2.041-4.679c-0.08-0.199-0.203-0.436-0.363-0.719
					c0.121-0.079,0.258-0.162,0.42-0.241c-0.039-0.078-0.18-0.199-0.42-0.356C355.467,97.631,355.629,97.557,355.826,97.436z"/>
				<path fill="#F57D1E" d="M374.543,93.115l-0.424,0.421c0.039,0.121,0.139,0.278,0.301,0.482
					c-0.361,0.524-0.777,1.058-1.262,1.618c-0.236,0.761-0.682,1.818-1.316,3.176l0.119,0.307c-0.436,0.315-0.535,0.501-0.303,0.538
					c-0.039,0.037-0.232,0.334-0.598,0.896l0.416,0.477l-0.17-0.051c-0.172,0.032-0.307,0.157-0.424,0.353l0.117,0.064l-0.18,0.362
					l-0.121-0.241c-0.074,0.682-0.123,1.238-0.123,1.679l-0.293-0.125c-0.563,1.957-0.883,3.598-0.961,4.92
					c-0.035,0.046-0.055,0.078-0.055,0.12c0,0.078,0.055,0.162,0.174,0.241c-0.119,0.079-0.377,0.38-0.775,0.899
					c-0.328,0.353-0.682,0.562-1.084,0.603l0.299-0.12c-0.24-0.283-0.678-0.422-1.314-0.422l0.291-0.362
					c-0.197-0.073-0.352-0.157-0.475-0.236c0.918-1.684,1.336-3.042,1.258-4.08c0.441-0.562,0.664-1.142,0.664-1.739
					c0.117-0.356,0.361-0.862,0.715-1.498v-0.417l-0.24-0.246c-0.199,0.121-0.613,0.59-1.256,1.415
					c-0.639,0.815-1.037,1.228-1.172,1.228c-0.137,0-0.463,0.334-0.957,1.017c-0.498,0.677-0.795,1.024-0.873,1.024
					c-0.076,0-0.465,0.357-1.137,1.076c-0.682,0.724-1.498,1.08-2.461,1.08v-0.241h-0.113c-0.088,0-0.127-0.079-0.127-0.236
					c0-0.042-0.061-0.065-0.178-0.065c-0.119,0-0.279-0.213-0.477-0.653c0.197-0.208,0.275-0.547,0.232-1.02
					c-0.035-0.488,0.064-0.784,0.301-0.904c-0.117-0.116-0.301-0.199-0.533-0.237c0.152-0.121,0.58-0.857,1.26-2.221
					c0.672-1.358,1.018-2.143,1.018-2.337l-0.182-0.302c0.637-0.677,0.959-1.441,0.959-2.281c0.082-0.115,0.223-0.273,0.414-0.478
					c-0.113-0.078-0.275-0.199-0.475-0.356l0.061-0.182l-0.119-0.189c0.682-0.515,1.002-0.77,0.967-0.77
					c0.113,0,0.248,0.018,0.41,0.056c0.16,0.036,0.303,0.056,0.424,0.056c0.639,0.407,1.172,0.709,1.617,0.903v0.658
					c0,0.126-0.063,0.187-0.18,0.187l-0.176-0.061c-0.123,0.398-0.643,1.159-1.563,2.281c-0.162,0-0.301,0.356-0.42,1.075
					c-0.482,0.44-0.879,1.363-1.203,2.76c-0.08,0.319-0.174,0.639-0.297,0.96c-0.125,0-0.184,0.018-0.184,0.063
					c0,0.154,0.262,0.232,0.783,0.232c0.396,0,1.197-0.857,2.402-2.573c0.271-0.203,0.416-0.445,0.416-0.719
					c0.998-0.807,1.66-1.382,1.982-1.743c0.674-0.719,1.154-1.461,1.438-2.221c0.32-0.242,0.809-0.956,1.473-2.161
					c0.66-1.196,0.986-1.994,0.986-2.398c0.197,0,0.518-0.051,0.959-0.147c0.438-0.098,0.764-0.148,0.961-0.148
					C374,92.159,374.258,92.475,374.543,93.115z M369.441,100.432c-0.08-0.079-0.154-0.111-0.242-0.111
					c-0.158,0-0.318,0.074-0.475,0.232l0.418,0.361l-0.123-0.361C369.1,100.432,369.242,100.395,369.441,100.432z"/>
				<path fill="#F57D1E" d="M396.545,84.661c-0.357,0.515-0.736,1.322-1.141,2.397c-0.277,0.199-0.736,1.076-1.375,2.643
					c-0.324,0.038-0.76,0.646-1.314,1.822c-0.561,1.183-0.838,1.977-0.838,2.374l-0.307-0.124c-1.398,4.043-2.1,6.398-2.1,7.08
					c-0.361,0.241-0.539,0.699-0.539,1.382c0,0.231,0.061,0.398,0.178,0.481c-0.117,0.075-0.301,0.218-0.541,0.413l0.24,0.187
					c-0.275,0.314-0.438,1.136-0.477,2.457c-0.041,0.876-0.082,1.78-0.121,2.698h-0.055c-0.086,0-0.201,0.042-0.33,0.121
					c-0.139,0.078-0.277,0.12-0.395,0.12c-0.045,0-0.248-0.098-0.629-0.269c-0.379-0.19-0.611-0.218-0.691-0.093l0.238-0.306
					l-0.416-0.237v-1.878c0.277-0.445,0.682-1.126,1.201-2.05c0-0.208,0.039-0.552,0.119-1.033c0.082-0.487,0.121-0.826,0.121-1.029
					l-0.484-0.487c-0.162,0.403-0.236,0.69-0.236,0.854c-0.402,0.273-0.865,0.723-1.381,1.321c-0.717,0.895-1.117,1.377-1.197,1.456
					c-0.043,0.32-0.152,0.486-0.332,0.486s-0.289,0.023-0.328,0.061l0.186,0.177c-0.127,0.041-0.779,0.556-1.955,1.544
					c-1.184,0.987-1.996,1.483-2.432,1.483c-0.158,0-0.285-0.088-0.354-0.241l-0.307,0.241c-0.08-0.12-0.381-0.282-0.9-0.478
					l0.238-0.297c-0.154-0.153-0.238-0.273-0.238-0.348c0-0.079,0.039-0.125,0.117-0.125l-0.295-0.056
					c0.154-0.631,0.295-1.554,0.416-2.777l0.361,0.056c0.086,0,0.121-0.153,0.121-0.474c0-0.121,0.314-0.478,0.961-1.053
					c0.635-0.579,1.002-0.908,1.076-0.987l-0.303-0.116c2.045-2.401,4.629-5.1,7.742-8.105l0.305-0.296
					c0.07,0,0.168-0.051,0.268-0.149c0.096-0.097,0.188-0.147,0.271-0.147c0.074,0,0.113-0.083,0.113-0.245
					c0-0.038,0.039-0.061,0.123-0.061c0.076,0,0.195,0,0.332,0c0.139,0,0.248,0,0.326,0c0.039,0.041,0.063,0.041,0.063,0h-0.123
					c0-0.038,0.045-0.038,0.123,0c0.682,0,1.021-0.733,1.021-2.199c1.281-2.285,1.834-3.626,1.678-4.042l0.293,0.129
					c0.328-0.682,0.646-1.345,0.965-1.984c0.52-0.918,1.037-1.382,1.561-1.382C395.611,83.576,396.07,83.938,396.545,84.661z
					 M388.395,96.296c-0.361,0.12-0.645,0.223-0.846,0.301c0.158,0.158,0.246,0.26,0.246,0.302c0,0.041-0.027,0.061-0.063,0.061
					c-0.117-0.084-0.283-0.158-0.479-0.242c-1.482,1.517-2.959,3.057-4.441,4.614c-2.197,2.365-3.297,3.982-3.297,4.859
					c0,0.199,0.082,0.398,0.234,0.603c0.084-0.125,0.184-0.144,0.307-0.064c0.996-0.955,2.178-2.096,3.545-3.412
					c0.348-0.524,0.816-1.025,1.371-1.503l1.139-1.493c0.238,0.032,0.365-0.148,0.365-0.547c0-0.399,0.195-0.617,0.598-0.654
					c-0.039-0.047-0.057-0.103-0.057-0.186c0-0.241,0.27-0.617,0.834-1.136C387.93,97.436,388.109,96.939,388.395,96.296z"/>
			</g>
		</g>
	</g>
	<g>
		<g>
			<g>
				<path fill="#1B3670" d="M87.404,102.653l-8.599-8.542c-2.796-2.745-3.955-5.731-3.932-8.347l0,0
					c0.081-4.692,3.123-7.567,3.721-8.146l0,0h-0.002c2.543-2.556,5.376-3.607,7.855-3.589l0,0c4.901,0.088,7.846,3.426,7.973,3.5
					l0,0l9.121,9.052v0.005c0.863,0.857,0.872,2.248,0.01,3.115l0,0c-0.855,0.863-2.25,0.868-3.109,0.005l0,0l-9.181-9.107
					c0,0,0-0.004-0.049-0.046l0,0c-0.048-0.056-0.143-0.134-0.262-0.24l0,0c-0.234-0.21-0.605-0.496-1.06-0.784l0,0
					c-0.916-0.57-2.149-1.099-3.443-1.094l0,0c-1.322,0.018-2.835,0.436-4.751,2.309l0,0l-0.099,0.098c0,0,0,0-0.056,0.051l0,0
					c-0.049,0.056-0.146,0.144-0.255,0.269l0,0c-0.223,0.236-0.533,0.603-0.839,1.071l0,0c-0.619,0.928-1.176,2.179-1.171,3.533l0,0
					c0.023,1.392,0.494,3.069,2.631,5.222l0,0l8.602,8.536c0.86,0.863,0.869,2.253,0.011,3.116l0,0
					c-0.431,0.432-0.999,0.653-1.563,0.649l0,0C88.394,103.288,87.831,103.079,87.404,102.653L87.404,102.653z"/>
				<path fill="#1B3670" d="M28.768,39.535c-4.906-0.079-7.845-3.413-7.973-3.492l0,0l-9.116-9.051
					c-0.862-0.858-0.867-2.253-0.014-3.116l0,0c0.86-0.863,2.254-0.872,3.121-0.014l0,0l9.172,9.111c0,0,0,0,0.047,0.046l0,0
					c0.051,0.051,0.137,0.135,0.262,0.237l0,0c0.239,0.213,0.607,0.496,1.062,0.788l0,0c0.911,0.58,2.145,1.095,3.44,1.085l0,0
					c1.317-0.014,2.828-0.431,4.75-2.314l0,0l0.1-0.093c0,0,0,0,0.058-0.051l0,0c0.051-0.056,0.142-0.139,0.257-0.264l0,0
					c0.22-0.241,0.528-0.612,0.834-1.071l0,0c0.622-0.928,1.176-2.179,1.171-3.538l0,0c-0.018-1.387-0.496-3.07-2.629-5.212l0,0
					l-8.597-8.541c-0.862-0.854-0.867-2.25-0.009-3.112l0,0c0.853-0.867,2.247-0.872,3.114-0.014l0,0l8.597,8.536
					c2.796,2.741,3.95,5.718,3.93,8.342l0,0c-0.081,4.692-3.125,7.572-3.724,8.146l0,0l0,0c-2.518,2.532-5.316,3.589-7.781,3.589
					l0,0C28.816,39.535,28.788,39.535,28.768,39.535L28.768,39.535z"/>
			</g>
			<g>
				<path fill="#1B3670" d="M103.48,26.992l-8.543,8.602c-2.745,2.792-5.729,3.946-8.349,3.923l0,0
					c-4.698-0.079-7.57-3.116-8.147-3.709l0,0l0,0c-2.551-2.545-3.605-5.375-3.587-7.855l0,0c0.083-4.911,3.424-7.846,3.501-7.975
					l0,0l9.051-9.126h0.005c0.855-0.857,2.251-0.862,3.109-0.009l0,0c0.867,0.858,0.87,2.258,0.014,3.116l0,0l-9.114,9.172
					c0,0,0,0-0.042,0.051l0,0c-0.053,0.056-0.134,0.144-0.243,0.265l0,0c-0.204,0.241-0.496,0.607-0.779,1.062l0,0
					c-0.577,0.914-1.101,2.151-1.094,3.445l0,0c0.014,1.317,0.433,2.829,2.307,4.748l0,0l0.098,0.102c0,0,0,0,0.048,0.056l0,0
					c0.056,0.046,0.144,0.139,0.269,0.25l0,0c0.236,0.227,0.607,0.538,1.076,0.839l0,0c0.923,0.616,2.175,1.173,3.529,1.173l0,0
					c1.394-0.023,3.07-0.491,5.228-2.638l0,0l8.532-8.588c0.855-0.867,2.253-0.876,3.116-0.018l0,0
					c0.436,0.436,0.651,0.997,0.651,1.567l0,0C104.115,26.004,103.904,26.565,103.48,26.992L103.48,26.992z"/>
				<path fill="#1B3670" d="M40.364,85.625c-0.088,4.906-3.42,7.847-3.496,7.972l0,0l-9.051,9.12
					c-0.86,0.863-2.256,0.868-3.121,0.01l0,0c-0.86-0.857-0.862-2.254-0.007-3.115l0,0l9.109-9.173c0,0,0,0,0.046-0.046l0,0
					c0.048-0.056,0.137-0.145,0.238-0.264l0,0c0.207-0.237,0.492-0.607,0.779-1.063l0,0c0.58-0.914,1.097-2.143,1.094-3.441l0,0
					c-0.019-1.312-0.436-2.827-2.312-4.748l0,0l-0.097-0.102c0,0,0,0-0.049-0.056l0,0c-0.051-0.051-0.144-0.139-0.267-0.255l0,0
					c-0.241-0.218-0.615-0.529-1.069-0.84l0,0c-0.932-0.621-2.182-1.173-3.541-1.168l0,0c-1.388,0.019-3.067,0.486-5.212,2.63l0,0
					l-8.541,8.592c-0.855,0.867-2.249,0.871-3.114,0.014l0,0c-0.867-0.854-0.871-2.249-0.007-3.116l0,0l8.53-8.597
					c2.743-2.796,5.724-3.95,8.344-3.928l0,0c4.695,0.074,7.568,3.121,8.145,3.729l0,0l0.005-0.009
					c2.529,2.521,3.591,5.317,3.591,7.78l0,0C40.364,85.584,40.364,85.603,40.364,85.625L40.364,85.625z"/>
			</g>
		</g>
		<g>
			<path fill="#8FC31F" d="M86.117,65.941c0-1.108,0.897-2.002,2.001-2.002l0,0h12.156c4.062-0.056,5.592-1.465,6.589-2.991l0,0
				c0.969-1.535,1.101-3.473,1.092-4.044l0,0c0-0.134,0-0.162,0-0.162l0,0l-0.009-0.111c-0.06-3.747-1.454-5.086-3.014-6.028l0,0
				c-1.586-0.9-3.513-0.987-3.821-0.979l0,0l0,0h-0.102h-12.89l0,0c-1.104,0-2.001-0.886-2.001-1.989l0,0
				c0-1.108,0.897-1.999,2.001-1.999l0,0h12.823c0.039-0.004,0.095-0.004,0.169-0.004l0,0c0.675,0.014,3.167,0.06,5.757,1.483l0,0
				c2.608,1.364,5.124,4.517,5.075,9.459l0,0c0.004,0.065,0.004,0.181,0.004,0.329l0,0c-0.006,0.969-0.109,3.552-1.676,6.14l0,0
				c-1.544,2.611-4.857,4.947-9.997,4.887l0,0l-12.156,0.005C87.015,67.936,86.117,67.045,86.117,65.941L86.117,65.941z"/>
			<path fill="#8FC31F" d="M8.537,66.452c-2.597-1.364-5.112-4.502-5.073-9.437l0,0c-0.009-0.064-0.009-0.19-0.009-0.352l0,0
				c0.009-0.974,0.118-3.557,1.681-6.139l0,0c1.544-2.62,4.855-4.958,9.993-4.892l0,0h12.155c1.104,0,1.996,0.89,1.996,1.999l0,0
				c0,1.099-0.893,1.994-1.996,1.994l0,0H15.128c-4.063,0.061-5.588,1.47-6.587,2.981l0,0c-0.969,1.549-1.104,3.478-1.087,4.058l0,0
				c0,0.125,0,0.139,0,0.139l0,0v0.139c0.069,3.746,1.47,5.082,3.021,6.023l0,0c1.586,0.896,3.506,0.983,3.814,0.974l0,0
				c0.053,0,0.063,0,0.104,0l0,0h12.891c1.113,0,1.996,0.895,1.996,2.002l0,0c0,1.104-0.883,1.989-1.996,1.989l0,0H14.435
				c-0.019,0-0.063,0.005-0.146,0.005l0,0C13.614,67.927,11.129,67.88,8.537,66.452L8.537,66.452z"/>
			<path fill="#8FC31F" d="M57.403,113.609c-4.971,0.051-8.131-2.448-9.517-5.04l0,0c-1.433-2.573-1.488-5.059-1.496-5.727l0,0
				c0-0.037,0-0.07,0.005-0.098l0,0H46.39V89.938h0.005c0-1.104,0.895-1.998,1.996-1.998l0,0c1.104,0,1.994,0.895,1.994,1.998l0,0
				v12.808v0.098l0,0c-0.014,0.302,0.079,2.207,0.98,3.77l0,0c0.944,1.54,2.298,2.939,6.091,3.005l0,0l0.113,0.005
				c0.004-0.005,0.026,0,0.167,0l0,0c0.58,0.009,2.534-0.126,4.09-1.085l0,0c1.537-0.997,2.949-2.5,3.004-6.524l0,0V89.947
				c0-1.108,0.897-1.999,1.994-1.999l0,0c1.108,0,2.003,0.891,2.003,1.999l0,0v12.065c0.058,5.114-2.302,8.412-4.929,9.937l0,0
				c-2.599,1.559-5.189,1.66-6.163,1.67l0,0C57.586,113.619,57.473,113.614,57.403,113.609L57.403,113.609z"/>
			<path fill="#8FC31F" d="M64.831,25.633V12.789c0,0,0-0.014,0-0.056l0,0c0.014-0.311-0.074-2.212-0.976-3.774l0,0
				c-0.946-1.54-2.295-2.931-6.086-2.996l0,0L57.63,5.959c0,0-0.016-0.005-0.139-0.005l0,0c-0.584-0.014-2.543,0.125-4.101,1.09l0,0
				c-1.537,0.992-2.947,2.499-3.005,6.519l0,0v12.07c0,1.108-0.89,2.004-1.994,2.004l0,0c-1.106,0-1.996-0.896-1.996-2.004l0,0
				v-12.07c-0.058-5.11,2.302-8.411,4.922-9.937l0,0c2.597-1.553,5.201-1.66,6.174-1.664l0,0c0.128,0,0.234,0,0.301,0.004l0,0
				c4.985-0.056,8.152,2.434,9.543,5.026l0,0c1.438,2.578,1.482,5.059,1.493,5.741l0,0c0,0.079,0,0.125,0,0.097l0,0v12.802l0,0
				c0,1.108-0.895,2.004-2.003,2.004l0,0C65.727,27.637,64.831,26.741,64.831,25.633L64.831,25.633z"/>
		</g>
	</g>
</g>
</svg>
